<svg width="15" height="13" viewBox="0 0 15 13" fill="none" xmlns="http://www.w3.org/2000/svg">
<path d="M10.3242 4.8418H13.1367V2.0293" stroke="black" stroke-linecap="round" stroke-linejoin="round"/>
<path d="M3.85547 2.85492C4.33382 2.37587 4.90193 1.99582 5.5273 1.73652C6.15266 1.47722 6.82301 1.34375 7.5 1.34375C8.17699 1.34375 8.84734 1.47722 9.4727 1.73652C10.0981 1.99582 10.6662 2.37587 11.1445 2.85492L13.1367 4.84125" stroke="black" stroke-linecap="round" stroke-linejoin="round"/>
<path d="M4.67578 8.1582H1.86328V10.9707" stroke="black" stroke-linecap="round" stroke-linejoin="round"/>
<path d="M11.1445 10.1445C10.6662 10.6236 10.0981 11.0036 9.4727 11.2629C8.84734 11.5222 8.17699 11.6557 7.5 11.6557C6.82301 11.6557 6.15266 11.5222 5.5273 11.2629C4.90193 11.0036 4.33382 10.6236 3.85547 10.1445L1.86328 8.1582" stroke="black" stroke-linecap="round" stroke-linejoin="round"/>
</svg>
