<svg width="28" height="24" viewBox="0 0 28 24" fill="none" xmlns="http://www.w3.org/2000/svg">
<g clip-path="url(#clip0_701_15497)">
<path d="M20.947 6.40625H6.21484" stroke="black" stroke-width="1.42857" stroke-linecap="round" stroke-linejoin="round"/>
<path d="M11.5742 10.4219V15.779" stroke="black" stroke-width="1.42857" stroke-linecap="round" stroke-linejoin="round"/>
<path d="M15.5898 10.4219V15.779" stroke="black" stroke-width="1.42857" stroke-linecap="round" stroke-linejoin="round"/>
<path d="M19.6083 6.40625V19.1295C19.6083 19.3071 19.5377 19.4774 19.4121 19.603C19.2865 19.7286 19.1162 19.7991 18.9386 19.7991H8.22433C8.04673 19.7991 7.8764 19.7286 7.75082 19.603C7.62524 19.4774 7.55469 19.3071 7.55469 19.1295V6.40625" stroke="black" stroke-width="1.42857" stroke-linecap="round" stroke-linejoin="round"/>
<path d="M16.9308 6.40513V5.06585C16.9308 4.71065 16.7897 4.36999 16.5385 4.11883C16.2874 3.86767 15.9467 3.72656 15.5915 3.72656H11.5737C11.2185 3.72656 10.8778 3.86767 10.6266 4.11883C10.3755 4.36999 10.2344 4.71065 10.2344 5.06585V6.40513" stroke="black" stroke-width="1.42857" stroke-linecap="round" stroke-linejoin="round"/>
</g>
<defs>
<clipPath id="clip0_701_15497">
<rect width="27.1429" height="22.8571" fill="white" transform="translate(0.0078125 0.289062)"/>
</clipPath>
</defs>
</svg>
