<svg width="46" height="40" viewBox="0 0 46 40" fill="none" xmlns="http://www.w3.org/2000/svg">
<rect width="46" height="40" rx="5" fill="#1E2124"/>
<path d="M34 14H12C11.4477 14 11 14.4477 11 15V19C11 19.5523 11.4477 20 12 20H34C34.5523 20 35 19.5523 35 19V15C35 14.4477 34.5523 14 34 14Z" stroke="white" stroke-linecap="round" stroke-linejoin="round"/>
<path d="M33 20V29C33 29.2652 32.8946 29.5196 32.7071 29.7071C32.5196 29.8946 32.2652 30 32 30H14C13.7348 30 13.4804 29.8946 13.2929 29.7071C13.1054 29.5196 13 29.2652 13 29V20" stroke="white" stroke-linecap="round" stroke-linejoin="round"/>
<path d="M23 14V30" stroke="white" stroke-linecap="round" stroke-linejoin="round"/>
<path d="M28.6625 12.5872C27.2375 13.9997 23 13.9997 23 13.9997C23 13.9997 23 9.76224 24.4125 8.33724C24.9761 7.77365 25.7405 7.45703 26.5375 7.45703C27.3345 7.45703 28.0989 7.77365 28.6625 8.33724C29.2261 8.90082 29.5427 9.66521 29.5427 10.4622C29.5427 11.2593 29.2261 12.0236 28.6625 12.5872Z" stroke="white" stroke-linecap="round" stroke-linejoin="round"/>
<path d="M17.3372 12.5872C18.7622 13.9997 22.9997 13.9997 22.9997 13.9997C22.9997 13.9997 22.9997 9.76224 21.5872 8.33724C21.0236 7.77365 20.2593 7.45703 19.4622 7.45703C18.6652 7.45703 17.9008 7.77365 17.3372 8.33724C16.7736 8.90082 16.457 9.66521 16.457 10.4622C16.457 11.2593 16.7736 12.0236 17.3372 12.5872V12.5872Z" stroke="white" stroke-linecap="round" stroke-linejoin="round"/>
</svg>
