<svg width="16" height="15" viewBox="0 0 16 15" fill="none" xmlns="http://www.w3.org/2000/svg">
<path d="M7.66406 4.184L8.82422 3.02384C9.31542 2.57614 9.96023 2.33492 10.6247 2.3503C11.2891 2.36568 11.9221 2.63649 12.392 3.10644C12.862 3.57639 13.1328 4.20935 13.1482 4.87379C13.1635 5.53822 12.9223 6.18304 12.4746 6.67423L10.8164 8.32658C10.5774 8.56646 10.2934 8.75679 9.98073 8.88666C9.66802 9.01653 9.33275 9.08338 8.99414 9.08338C8.65554 9.08338 8.32026 9.01653 8.00756 8.88666C7.69485 8.75679 7.41086 8.56646 7.17188 8.32658" stroke="black" stroke-linecap="round" stroke-linejoin="round"/>
<path d="M8.33634 10.8174L7.17619 11.9775C6.68499 12.4252 6.04018 12.6664 5.37574 12.651C4.71131 12.6357 4.07835 12.3649 3.60839 11.8949C3.13844 11.425 2.86764 10.792 2.85226 10.1276C2.83687 9.46313 3.0781 8.81831 3.5258 8.32712L5.184 6.67477C5.42298 6.4349 5.70697 6.24456 6.01968 6.11469C6.33239 5.98482 6.66766 5.91797 7.00627 5.91797C7.34487 5.91797 7.68014 5.98482 7.99285 6.11469C8.30556 6.24456 8.58955 6.4349 8.82853 6.67477" stroke="black" stroke-linecap="round" stroke-linejoin="round"/>
</svg>
