<svg width="13" height="13" viewBox="0 0 13 13" fill="none" xmlns="http://www.w3.org/2000/svg">
<path d="M7.3649 9.08477L5.92779 10.5219C5.70138 10.7483 5.43261 10.9279 5.1368 11.0504C4.84099 11.1729 4.52394 11.236 4.20376 11.236C3.55713 11.236 2.93698 10.9791 2.47974 10.5219C2.0225 10.0646 1.76562 9.44449 1.76562 8.79785C1.76562 8.15122 2.0225 7.53107 2.47974 7.07383L3.91685 5.63672" stroke="black" stroke-linecap="round" stroke-linejoin="round"/>
<path d="M9.08477 7.36294L10.5219 5.92583C10.9791 5.46859 11.236 4.84844 11.236 4.20181C11.236 3.55518 10.9791 2.93503 10.5219 2.47779C10.0646 2.02055 9.44449 1.76367 8.79785 1.76367C8.15122 1.76367 7.53107 2.02055 7.07383 2.47779L5.63672 3.9149" stroke="black" stroke-linecap="round" stroke-linejoin="round"/>
<path d="M7.3649 9.08477L5.92779 10.5219C5.70138 10.7483 5.43261 10.9279 5.1368 11.0504C4.84099 11.1729 4.52394 11.236 4.20376 11.236C3.55713 11.236 2.93698 10.9791 2.47974 10.5219C2.0225 10.0646 1.76562 9.44449 1.76562 8.79785C1.76562 8.15122 2.0225 7.53107 2.47974 7.07383L3.91685 5.63672" stroke="black" stroke-linecap="round" stroke-linejoin="round"/>
<path d="M9.08477 7.36294L10.5219 5.92583C10.9791 5.46859 11.236 4.84844 11.236 4.20181C11.236 3.55518 10.9791 2.93503 10.5219 2.47779C10.0646 2.02055 9.44449 1.76367 8.79785 1.76367C8.15122 1.76367 7.53107 2.02055 7.07383 2.47779L5.63672 3.9149" stroke="black" stroke-linecap="round" stroke-linejoin="round"/>
</svg>
