<svg width="34" height="34" viewBox="0 0 34 34" fill="none" xmlns="http://www.w3.org/2000/svg">
<path d="M10.75 17.9062V23.25C10.75 23.4158 10.8158 23.5747 10.9331 23.6919C11.0503 23.8092 11.2092 23.875 11.375 23.875H22.625C22.7908 23.875 22.9497 23.8092 23.0669 23.6919C23.1842 23.5747 23.25 23.4158 23.25 23.25V17.9062" stroke="#4EAE21" stroke-linecap="round" stroke-linejoin="round"/>
<path d="M11.2188 10.125H22.7812C22.9168 10.1261 23.0485 10.1708 23.1568 10.2523C23.2651 10.3339 23.3443 10.4481 23.3828 10.5781L24.5 14.5H9.5L10.6172 10.5781C10.6557 10.4481 10.7349 10.3339 10.8432 10.2523C10.9515 10.1708 11.0832 10.1261 11.2188 10.125V10.125Z" stroke="#4EAE21" stroke-linecap="round" stroke-linejoin="round"/>
<path d="M14.5 14.5V15.75C14.5 16.413 14.2366 17.0489 13.7678 17.5178C13.2989 17.9866 12.663 18.25 12 18.25C11.337 18.25 10.7011 17.9866 10.2322 17.5178C9.76339 17.0489 9.5 16.413 9.5 15.75V14.5" stroke="#4EAE21" stroke-linecap="round" stroke-linejoin="round"/>
<path d="M19.5 14.5V15.75C19.5 16.413 19.2366 17.0489 18.7678 17.5178C18.2989 17.9866 17.663 18.25 17 18.25C16.337 18.25 15.7011 17.9866 15.2322 17.5178C14.7634 17.0489 14.5 16.413 14.5 15.75V14.5" stroke="#4EAE21" stroke-linecap="round" stroke-linejoin="round"/>
<path d="M24.5 14.5V15.75C24.5 16.413 24.2366 17.0489 23.7678 17.5178C23.2989 17.9866 22.663 18.25 22 18.25C21.337 18.25 20.7011 17.9866 20.2322 17.5178C19.7634 17.0489 19.5 16.413 19.5 15.75V14.5" stroke="#4EAE21" stroke-linecap="round" stroke-linejoin="round"/>
</svg>
